<?xml version="1.0" encoding="utf-8"?><!DOCTYPE svg PUBLIC "-//W3C//DTD SVG 1.1//EN" "http://www.w3.org/Graphics/SVG/1.1/DTD/svg11.dtd"><svg xmlns="http://www.w3.org/2000/svg" xmlns:xlink="http://www.w3.org/1999/xlink"><symbol viewBox="0 0 1024 1024" id="close"><path d="M724.5 317.2l-17.7-17.7L512 494.3 317.2 299.5l-17.7 17.7L494.3 512 299.5 706.8l17.7 17.7L512 529.7l194.8 194.8 17.7-17.7L529.7 512"/></symbol><symbol viewBox="0 0 1024 1024" id="down"><path d="M316.2 452.8l39.7-39.7 156.1 156 156.2-156.2 39.9 39.9-195.9 195.9-196-195.9z"/></symbol><symbol viewBox="0 0 1024 1024" id="economist"><path fill="#E3120B" d="M0 256h1024v512H0z"/><path fill="#FFF" d="M475 391.2c-.5-14.4-3.5-16.3-25.3-16.3H445v82.8c0 11.3 2.9 14.4 14.1 14.7l.3 3.9c-10.6-.2-18.6-.2-23.9-.2-5.4 0-13.8 0-24.7.2l.3-3.9c11.2-.3 14.1-3.3 14.1-14.7v-82.8h-5.5c-22.4 0-25.4 2-25.7 16.3l-5.6-.3.6-23.4c20.6.2 35.9.3 46.1.3 9.8 0 24.8-.1 44.6-.3l.6 23.4-5.3.3zm76.8 84.4c-4.2 0-10.4.3-18.8.6l.3-3.6c8-1.2 8.8-2.7 8.9-16.2v-23c0-19.1-3.3-25.4-13.3-25.4-5.6 0-11.3 3.5-13.8 8.8-.9 1.8-1.5 3.8-2.1 5.8-.1.7-.1 1.4-.1 1.7v32.2c0 13.5.9 15 8.9 16.2l.3 3.6c-8.5-.3-14.7-.6-18.9-.6-4.4 0-11 .3-19.7.6l.3-3.6c10.1 0 11.5-2 11.7-16.2v-69.1c-.2-14.2-1.5-16.2-11.7-16.2l-.3-3.6c13.8-.7 16.9-1.2 29.3-3.5V411c8-8.9 14.8-12.4 23.8-12.4 14.8 0 23 9.4 23 26.6v31.3c.2 14.2 1.5 16.2 11.7 16.2l.3 3.6c-8.7-.4-15.4-.7-19.8-.7zm48.2-42c.6 23 8.9 36 22.8 36 8.3 0 15.3-3.8 22.7-12.4l2.3 4.2c-9.4 11.6-18.6 16.5-30.7 16.5-21 0-35.3-15.4-35.3-38.3 0-24.4 14.7-41.2 35.9-41.2 11.6 0 19.8 4.2 25.4 13.5 3.8 6.4 4.8 10.7 5 21.6l-48.1.1zm14.9-29.9c-9.1 0-13.8 7.6-15.3 24 13.9-.3 18.2-.6 32.2-2.1-1.8-14.6-7.4-21.9-16.9-21.9zm-481 216.1c18.9 0 24.5-4.2 26.2-20.5l6.7.3-3.9 28.2-12.9.2-41.1-.3-27.9.2.5-4.4c12.2-.3 15.4-3.7 15.4-16.3v-79.3c0-12.6-3.2-15.9-15.4-16.3l-.5-4.4 26 .3 40.9-.5 10.7.2.7 24.7-6.7.5c-1.2-15.3-4-16.9-28.2-16.9h-3.7l-1.7.2v45.6c3.2 0 5.7.2 7.2.2 2.7.2 5.2.3 7.7.3 13.4 0 16.4-2.9 16.6-15.6h5.7c-.5 10.2-.5 15.4-.5 20.5 0 4 0 9.7.2 17.3h-5.4c-.7-12.1-3.4-14.4-16.3-14.6l-9.1-.2-6.4.4V605c.2 14.1 1.1 14.8 15.2 14.8zm93.7-72.3c-12.6 0-19.1 11.2-19.1 32.9 0 25.5 7.9 39.8 22.1 39.8 7.4 0 13.6-3.2 20.1-10.2l2.5 6c-9.6 9.9-17.5 13.8-28.5 13.8-22.1 0-36.6-17.3-36.6-43.6 0-27.2 15.3-44.5 39.4-44.5 6.4 0 12.9 1.2 23 3.9l.3 20.1-7.6.5c-2.8-15.2-5.8-18.7-15.6-18.7zm84.5 82.2c-24 0-40.1-16.1-40.9-40.8v-2.5c0-28.3 15.3-44.8 41.4-44.8 24.3 0 41.5 18.1 41.5 44.1 0 26.4-16.6 44-42 44zm-2-81.7c-12.3 0-18.5 10.6-18.5 31.5 0 2.5 0 5 .3 7.6 1.7 24 9.6 36.9 22.5 36.9 12.1 0 19.3-12.6 19.3-33.7.1-24.8-9.8-42.3-23.6-42.3zm119 79.9l.3-4c8.9-1.3 9.9-3 9.9-18l.2-10.6v-14.9c0-21.1-3.9-28.2-14.8-28.2-6.5 0-12.1 3.5-15.4 9.7-1.3 2.5-2.5 6.5-2.5 8.2v35.8c.2 14.9 1 16.6 9.9 18l.5 4c-9.2-.3-33-.3-43 0l.3-4c11.2 0 12.9-2.2 12.9-18V567c0-15.6-1.7-17.8-12.9-17.9l-.3-3.9c14.9-.8 18.3-1.3 31-4l.8 15.1c9.6-10.7 16.9-14.6 27.2-14.6 16.3 0 25.5 10.6 25.5 29.5v34.7c-.2 1.3-.2 2.7-.2 4 0 10.7 2.8 13.9 13.1 13.9l.3 4c-10-.3-33.9-.3-42.8.1zm98.6 1.8c-24 0-40.1-16.1-40.9-40.8v-2.5c0-28.3 15.3-44.8 41.4-44.8 24.3 0 41.4 18.1 41.4 44.1 0 26.4-16.6 44-41.9 44zm-2-81.7c-12.2 0-18.5 10.6-18.5 31.5 0 2.5 0 5 .3 7.6 1.7 24 9.6 36.9 22.5 36.9 12.1 0 19.3-12.6 19.3-33.7 0-24.8-9.9-42.3-23.6-42.3zm169.4 79.9l.3-4c8.9-1.3 9.7-3 9.9-18v-25.5c0-20.8-3.7-28.2-14.1-28.2-6.2 0-12.6 4-15.3 9.7-.8 2-1.7 4-2.2 6.4-.2.8-.3 1.5-.3 1.8v35.8c0 14.9 1 16.6 9.9 18l.3 4c-9.1-.3-31.2-.3-39.8 0l.3-4c8.9-1.3 9.7-3 9.9-18v-25.5c0-20.8-3.7-28.2-14.1-28.2-6.4 0-12.1 3.7-15.3 9.7-1.3 2.7-2.5 6.5-2.5 8.2v35.8c.2 14.9 1 16.6 9.9 18l.3 4c-9-.3-32.8-.3-42.8 0l.3-4c11.2 0 12.9-2.2 12.9-18V567c0-15.6-1.7-17.8-12.9-17.9l-.3-3.9c14.9-.8 18.3-1.3 31-4l.8 15.1c9.6-10.6 16.9-14.6 26.8-14.6 11.4 0 18.1 4.7 23.2 15.9 10.2-11.7 17.8-15.9 28-15.9 15.9 0 25 10.7 25 29.5v34.7c0 1.3-.2 2.7-.2 4 0 10.7 3 13.9 13.1 13.9l.3 4c-9.8-.3-33.5-.3-42.4.1zm81.7-.7c-5 0-12.6.3-22.8.7l.3-4c11.2 0 12.9-2.2 12.9-17.9l.2-10.6v-17.6l-.2-10.7c0-15.6-1.7-17.8-12.9-17.9l-.3-3.9c15.4-1 19-1.5 32.5-4v54.2l.2 10.6c0 15.8 1.5 17.9 12.9 17.9l.3 4c-10.4-.5-17.9-.8-23.1-.8zm-.7-102.7c-6.4 0-11.2-4.9-11.2-11.4 0-6.4 5-11.4 11.2-11.4 6.2 0 11.2 5.2 11.2 11.4 0 6.4-4.8 11.4-11.2 11.4zm71.8 23c-7.6 0-12.9 4.3-12.9 10.6 0 5.9 2.7 9.4 11.4 14.9 7.9 5.2 14.1 9.9 18.3 13.6 4.7 4.5 7.4 10.2 7.4 16.8 0 14.9-12.6 26.3-28.7 26.3-6.2 0-12.1-1.3-22.8-4.9l-.7-17.1 8.6-.3c3.9 12.9 6.4 15.4 15.3 15.4 7.7 0 12.7-4 12.7-10.1 0-5.7-3.5-10.1-14.1-17.3-5.4-3.7-9.1-6.2-11.1-7.7-4.4-3.4-7.5-7.4-9.2-11.9-1-2.5-1.5-5.5-1.5-9.1 0-15.3 10.4-25.2 26.2-25.2 5.9 0 9.2.5 22.8 3.7l.3 16.9-8.6.3c-2-11-5.5-14.9-13.4-14.9zm85.9 73.5c2.7 0 5.2-.3 9.2-1.5v4.9c-5.7 3.2-13.6 5-21.6 5-7.4 0-14.4-4.2-17.5-10.4-2.5-5.2-3.3-10.4-3.3-21.8v-43h-10.7v-7.7c13.3-1 18.4-6.7 22.3-24.2h7.6V545h21.1l-2.3 9.2h-18.8v41.3c-.1 20.6 2.5 25.5 14 25.5z"/></symbol><symbol viewBox="0 0 1024 1024" id="economist-small"><path fill="#E3120B" d="M0 0h1024v1024H0z"/><path fill="#FFF" d="M341.6 723.4c40.1-.7 49.5-11.1 49.5-50.6V352.6c0-39.5-9.4-50.6-49.5-51.3v-29.1h325.5l7.4 110.9h-40.1c-14.7-52.7-23.4-68.6-66.8-68.6h-90.2V485H528c41.4 0 53.5-9.7 56.1-49.2h36.1v139.3h-36.1c-2.7-37.4-14-49.2-55.5-49.2h-51.5V711h96.2c47.5 0 62.2-15.9 67.5-80.4h41.4v121.3H341.6v-28.5z"/></symbol><symbol viewBox="0 0 1024 1024" id="facebook"><path d="M596.9 500.1h-61.1v217.7h-90.5V500.1h-43v-76.9h43v-49.8c0-35.6 16.9-91.3 91.3-91.3l67 .3V357h-48.7c-7.9 0-19.2 3.9-19.2 21v45.2h69l-7.8 76.9z"/></symbol><symbol viewBox="0 0 1024 1024" id="googleplus"><path d="M578.5 295H440.9c-69.8 0-128.1 51.3-128.1 108 0 57.9 38.3 103.9 104 103.9 4.6 0 9-.3 13.3-.6-4.3 8.2-7.3 17.2-7.3 26.8 0 16.1 8.8 25.2 19.8 35.8-8.3 0-16.2.2-25 .2-80 0-136 55.1-136 107.9 0 52 67.5 84.5 147.5 84.5 91.2 0 147.2-51.7 147.2-103.8 0-41.7-9-62.7-53.4-96-12.8-9.6-40.5-29.2-40.5-42.4 0-15.4 4.4-23 27.6-41.2 23.8-18.6 40.6-43 40.6-73.5 0-33.2-13.5-63.7-39.1-77.7h36.1l30.9-31.9zm-46.6 353.8c1.1 4.8 1.8 9.7 1.8 14.8 0 42.1-27.1 74.9-104.8 74.9-55.3 0-95.2-35-95.2-77 0-41.2 46.8-76.7 102.1-76.1 12.9.1 24.9 2.2 35.8 5.7 30 20.9 54.2 33.9 60.3 57.7zm-88.5-163.1c-37.1-1.1-72.4-35.2-78.8-83.9-6.4-48.7 18.5-86 55.6-84.9 37.1 1.1 68.8 41.1 75.2 89.8 6.4 48.7-14.9 80.1-52 79zM685 364v-63h-32v63h-63v32h63v64h32v-64h63v-32"/></symbol><symbol viewBox="0 0 1024 1024" id="hamburger"><g fill-rule="evenodd" clip-rule="evenodd"><path d="M258 350h507v56H258zM258 483h507v56H258zM258 619h507v56H258z"/></g></symbol><symbol viewBox="0 0 1020.4 1020.4" id="home"><path d="M716.2 523h-47.3v174.8H545v-109h-69.6v109H351.5V523h-47.3l77.5-88.9V320.4H440v46.8l70.2-80.6 103 118.2 103 118.2z"/></symbol><symbol viewBox="0 0 1024 1024" id="left"><path d="M340 529.8l195.9-196 39.9 39.9L419.7 530l156 156.1-39.7 39.7-196-196z"/></symbol><symbol viewBox="0 0 1024 1024" id="linkedin"><path d="M279.9 395.2h99.9v300.5h-99.9zM329.8 354.2h-.7c-33.5 0-55.2-23.1-55.2-51.9 0-29.5 22.4-51.9 56.5-51.9 34.2 0 55.2 22.5 55.9 51.9 0 28.8-21.6 51.9-56.5 51.9zM740 695.7h-99.9V534.9c0-40.4-14.4-68-50.6-68-27.6 0-44 18.7-51.3 36.6-2.6 6.4-3.3 15.3-3.3 24.3v167.8H435s1.3-272.3 0-300.5h99.9v42.6c13.3-20.5 37-49.6 90-49.6 65.7 0 115 42.9 115 135.2v172.4z"/></symbol><symbol viewBox="0 0 1024 1024" id="magnifier"><path d="M737.5 680.7l-113.9-96.9c-11.8-10.6-24.4-15.5-34.5-15 26.9-31.5 43.1-72.3 43.1-117 0-99.6-80.7-180.3-180.3-180.3-99.6 0-180.3 80.7-180.3 180.3 0 99.6 80.7 180.3 180.3 180.3 44.6 0 85.5-16.2 117-43.1-.5 10.2 4.4 22.8 15 34.5l96.9 113.9c16.6 18.4 43.7 20 60.2 3.5 16.4-16.5 14.9-43.6-3.5-60.2zM451.9 572.1c-66.4 0-120.2-53.8-120.2-120.2s53.8-120.2 120.2-120.2 120.2 53.8 120.2 120.2-53.8 120.2-120.2 120.2zm0 0"/></symbol><symbol viewBox="0 0 1024 1024" id="mail"><path d="M685.2 352c-116.2.1-232.6 0-348.9 0-26.2 0-47.5 21.2-47.5 47.5.6 72 0 148.2 0 221.5 0 25.3 19.7 45.7 44.5 47.2l353.1.2c25.3-1 45.5-21.9 45.5-47.5V391.3c-3.8-22.4-23.3-39.3-46.7-39.3zm1.5 24.9L516.8 546.8c-3.1 3.1-8 3.1-11.1 0L335.6 376.9h351.1zm-360 266.3c-8.3-2.8-11.2-9.5-11.4-18.5V390l132.3 132.3-120.9 120.9zm31.9 1.5l105.8-105.8 41.3 41.5c3.1 3.1 8 3.1 11.1 0l40.1-40.1 104.3 104.3H358.6zm349.6-25.5c0 13.7-4.9 21.5-14.8 24.2L573.7 523.5 708.2 389v230.2z"/></symbol><symbol viewBox="0 0 1020.4 1020.4" id="right"><path d="M459.8 706.2l-39.7-39.7 156-156.1-156.2-156.3 39.9-39.9 195.9 195.9-195.9 196.1z"/></symbol><symbol viewBox="0 0 1024 1024" id="rss"><path d="M348.3 623.8c0 28.9 23.4 52.3 52.2 52.3 28.9 0 52.3-23.4 52.3-52.3s-23.4-52.2-52.3-52.2-52.2 23.4-52.2 52.2zM348 492.2c49 0 95.1 18.9 129.7 53.7 34.6 34.8 53.9 81.1 53.9 130.1H607c0-143-115.9-259.2-258.9-259.2v75.4z"/><path d="M664.7 677h75.4c0-217.5-175.1-393.9-391.1-393.9v75.4c174 0 315.7 142.9 315.7 318.5z"/></symbol><symbol viewBox="0 0 1024 1024" id="share"><path fill-rule="evenodd" clip-rule="evenodd" d="M598 571c-20.1 0-37.9 10.1-48.5 25.5l-130.7-69.2c1.3-4.9 2.3-10 2.3-15.3s-.9-10.4-2.3-15.3l130.7-69.2c10.7 15.4 28.4 25.5 48.5 25.5 32.6 0 59-26.4 59-59s-26.4-59-59-59-59 26.4-59 59c0 .6.2 1.1.2 1.6l-137.6 72.9C391.1 459 377.3 453 362 453c-32.6 0-59 26.4-59 59s26.4 59 59 59c15.3 0 29.1-6 39.6-15.5l137.6 72.9c0 .6-.2 1.1-.2 1.6 0 32.6 26.4 59 59 59s59-26.4 59-59-26.4-59-59-59z"/></symbol><symbol viewBox="0 0 1024 1024" id="twitter"><path d="M692.1 459.7c.2 4 .3 8 .3 12 0 122.8-93.5 264.4-264.4 264.4-52.5 0-101.3-15.4-142.5-41.7 7.3.8 14.7 1.3 22.2 1.3 43.6 0 83.6-14.8 115.4-39.8-40.6-.8-75-27.6-86.8-64.5 5.7 1.1 11.5 1.7 17.5 1.7 8.5 0 16.7-1.2 24.5-3.3-42.5-8.6-74.5-46.1-74.5-91.1v-1.2c12.5 7 26.9 11.1 42.1 11.6-24.9-16.6-41.3-45.1-41.3-77.4 0-17 4.6-33 12.6-46.7 59.4 74.4 133.9 119.4 191.5 97.1-1.6-6.8-2.4-13.9-2.4-21.2 0-51.3 41.6-92.9 92.9-92.9 26.7 0 50.9 11.3 67.8 29.3 21.1-4.1 41.1-11.9 59-22.6-7 21.7-21.7 39.9-40.9 51.4 18.8-2.2 36.7-7.2 53.4-14.6-12.5 18.7-28.2 35.1-46.4 48.2z"/></symbol><symbol viewBox="0 0 1024 1024" id="up"><path d="M513.1 366.9l196 195.9-39.9 39.9-156.3-156.2-156.1 156-39.7-39.7 196-195.9z"/></symbol><symbol viewBox="0 0 1024 1024" id="user"><path d="M573.2 608.5c-12.2-1.9-12.5-35.5-12.5-35.5s35.9-35.5 43.7-83.3c21 0 34-50.8 13-68.7.9-18.8 27-147.7-105.4-147.7-132.5 0-106.3 128.9-105.4 147.7-21 17.9-8 68.7 13 68.7 7.8 47.8 43.7 83.3 43.7 83.3s-.3 33.6-12.5 35.5c-39.3 6.3-186.3 71.1-186.3 142.1h495c0-71-146.9-135.8-186.3-142.1zm0 0"/></symbol><symbol viewBox="0 0 1024 1024" id="whatsapp"><path fill-rule="evenodd" clip-rule="evenodd" d="M751.3 498.4c0 128.3-104.8 232.4-234.2 232.4-41.1 0-79.7-10.5-113.2-28.9L274.2 743l42.3-124.7c-21.3-35-33.6-76.1-33.6-120C282.9 370 387.7 266 517.1 266c129.3 0 234.2 104 234.2 232.4zM517.1 303c-108.6 0-196.9 87.6-196.9 195.4 0 42.7 13.9 82.3 37.5 114.6l-24.6 72.5 75.7-24c31.1 20.4 68.3 32.3 108.3 32.3 108.5 0 196.9-87.6 196.9-195.4C714 390.6 625.6 303 517.1 303zm118.2 248.9c-1.5-2.4-5.3-3.8-11-6.7-5.7-2.8-34-16.6-39.2-18.5-5.3-1.9-9.1-2.8-12.9 2.8-3.8 5.7-14.8 18.5-18.2 22.3-3.3 3.8-6.7 4.3-12.4 1.4-5.8-2.8-24.3-8.9-46.2-28.3-17.1-15.1-28.6-33.8-31.9-39.4-3.3-5.7-.3-8.8 2.5-11.6 2.6-2.6 5.8-6.7 8.6-10 2.9-3.3 3.8-5.7 5.7-9.5 1.9-3.8 1-7.1-.5-10-1.4-2.8-12.9-30.9-17.7-42.3-4.8-11.4-9.5-9.5-12.9-9.5-3.3 0-7.2-.5-11-.5s-10 1.4-15.3 7.1c-5.3 5.7-20.1 19.5-20.1 47.5s20.6 55.1 23.4 58.9c2.9 3.8 39.7 63.2 98.1 86 58.4 22.8 58.4 15.2 68.9 14.2 10.5-.9 34-13.8 38.7-27.1 4.9-13 4.9-24.4 3.4-26.8zm0 0"/></symbol><symbol viewBox="0 0 1024 1024" id="worldif"><path fill="#38A8E0" d="M0 0h1024v1024H0z"/><g fill="#FFF"><path d="M253.9 272.2h57.8v479.6h-57.8V272.2zm70.5 479.6V272.2h57.8v479.6h-57.8zM444.3 272.2h325.8v48h-268v431.6h-57.8V272.2zm302.6 253.2h-232V332.9h255.3v47.3H572.6v97.3h174.2v47.9zM514.8 751.8V538.1h232v47.3H572.6v166.4h-57.8z"/></g></symbol></svg>