<?xml version="1.0" encoding="UTF-8" standalone="no"?><!DOCTYPE svg PUBLIC "-//W3C//DTD SVG 1.1//EN" "http://www.w3.org/Graphics/SVG/1.1/DTD/svg11.dtd"><svg xmlns="http://www.w3.org/2000/svg" xmlns:xlink="http://www.w3.org/1999/xlink"><symbol viewBox="0 0 40 40" id="close"><title>close</title><path d="M31 10.875L30.125 10 20.5 19.625 10.875 10l-.875.875 9.625 9.625L10 30.125l.875.875 9.625-9.625L30.125 31l.875-.875-9.625-9.625L31 10.875z" fill-rule="evenodd"/></symbol><symbol viewBox="0 0 40 40" id="down"><title>down</title><path d="M10 16.86l1.925-1.85 7.568 7.277L27.066 15 29 16.86 19.502 26 10 16.86z" fill-rule="evenodd"/></symbol><symbol viewBox="0 0 1024 1024" id="economist"><path fill="#E3120B" d="M0 256h1024v512H0z"/><path fill="#FFF" d="M475 391.2c-.5-14.4-3.5-16.3-25.3-16.3H445v82.8c0 11.3 2.9 14.4 14.1 14.7l.3 3.9c-10.6-.2-18.6-.2-23.9-.2-5.4 0-13.8 0-24.7.2l.3-3.9c11.2-.3 14.1-3.3 14.1-14.7v-82.8h-5.5c-22.4 0-25.4 2-25.7 16.3l-5.6-.3.6-23.4c20.6.2 35.9.3 46.1.3 9.8 0 24.8-.1 44.6-.3l.6 23.4-5.3.3zm76.8 84.4c-4.2 0-10.4.3-18.8.6l.3-3.6c8-1.2 8.8-2.7 8.9-16.2v-23c0-19.1-3.3-25.4-13.3-25.4-5.6 0-11.3 3.5-13.8 8.8-.9 1.8-1.5 3.8-2.1 5.8-.1.7-.1 1.4-.1 1.7v32.2c0 13.5.9 15 8.9 16.2l.3 3.6c-8.5-.3-14.7-.6-18.9-.6-4.4 0-11 .3-19.7.6l.3-3.6c10.1 0 11.5-2 11.7-16.2v-69.1c-.2-14.2-1.5-16.2-11.7-16.2l-.3-3.6c13.8-.7 16.9-1.2 29.3-3.5V411c8-8.9 14.8-12.4 23.8-12.4 14.8 0 23 9.4 23 26.6v31.3c.2 14.2 1.5 16.2 11.7 16.2l.3 3.6c-8.7-.4-15.4-.7-19.8-.7zm48.2-42c.6 23 8.9 36 22.8 36 8.3 0 15.3-3.8 22.7-12.4l2.3 4.2c-9.4 11.6-18.6 16.5-30.7 16.5-21 0-35.3-15.4-35.3-38.3 0-24.4 14.7-41.2 35.9-41.2 11.6 0 19.8 4.2 25.4 13.5 3.8 6.4 4.8 10.7 5 21.6l-48.1.1zm14.9-29.9c-9.1 0-13.8 7.6-15.3 24 13.9-.3 18.2-.6 32.2-2.1-1.8-14.6-7.4-21.9-16.9-21.9zm-481 216.1c18.9 0 24.5-4.2 26.2-20.5l6.7.3-3.9 28.2-12.9.2-41.1-.3-27.9.2.5-4.4c12.2-.3 15.4-3.7 15.4-16.3v-79.3c0-12.6-3.2-15.9-15.4-16.3l-.5-4.4 26 .3 40.9-.5 10.7.2.7 24.7-6.7.5c-1.2-15.3-4-16.9-28.2-16.9h-3.7l-1.7.2v45.6c3.2 0 5.7.2 7.2.2 2.7.2 5.2.3 7.7.3 13.4 0 16.4-2.9 16.6-15.6h5.7c-.5 10.2-.5 15.4-.5 20.5 0 4 0 9.7.2 17.3h-5.4c-.7-12.1-3.4-14.4-16.3-14.6l-9.1-.2-6.4.4V605c.2 14.1 1.1 14.8 15.2 14.8zm93.7-72.3c-12.6 0-19.1 11.2-19.1 32.9 0 25.5 7.9 39.8 22.1 39.8 7.4 0 13.6-3.2 20.1-10.2l2.5 6c-9.6 9.9-17.5 13.8-28.5 13.8-22.1 0-36.6-17.3-36.6-43.6 0-27.2 15.3-44.5 39.4-44.5 6.4 0 12.9 1.2 23 3.9l.3 20.1-7.6.5c-2.8-15.2-5.8-18.7-15.6-18.7zm84.5 82.2c-24 0-40.1-16.1-40.9-40.8v-2.5c0-28.3 15.3-44.8 41.4-44.8 24.3 0 41.5 18.1 41.5 44.1 0 26.4-16.6 44-42 44zm-2-81.7c-12.3 0-18.5 10.6-18.5 31.5 0 2.5 0 5 .3 7.6 1.7 24 9.6 36.9 22.5 36.9 12.1 0 19.3-12.6 19.3-33.7.1-24.8-9.8-42.3-23.6-42.3zm119 79.9l.3-4c8.9-1.3 9.9-3 9.9-18l.2-10.6v-14.9c0-21.1-3.9-28.2-14.8-28.2-6.5 0-12.1 3.5-15.4 9.7-1.3 2.5-2.5 6.5-2.5 8.2v35.8c.2 14.9 1 16.6 9.9 18l.5 4c-9.2-.3-33-.3-43 0l.3-4c11.2 0 12.9-2.2 12.9-18V567c0-15.6-1.7-17.8-12.9-17.9l-.3-3.9c14.9-.8 18.3-1.3 31-4l.8 15.1c9.6-10.7 16.9-14.6 27.2-14.6 16.3 0 25.5 10.6 25.5 29.5v34.7c-.2 1.3-.2 2.7-.2 4 0 10.7 2.8 13.9 13.1 13.9l.3 4c-10-.3-33.9-.3-42.8.1zm98.6 1.8c-24 0-40.1-16.1-40.9-40.8v-2.5c0-28.3 15.3-44.8 41.4-44.8 24.3 0 41.4 18.1 41.4 44.1 0 26.4-16.6 44-41.9 44zm-2-81.7c-12.2 0-18.5 10.6-18.5 31.5 0 2.5 0 5 .3 7.6 1.7 24 9.6 36.9 22.5 36.9 12.1 0 19.3-12.6 19.3-33.7 0-24.8-9.9-42.3-23.6-42.3zm169.4 79.9l.3-4c8.9-1.3 9.7-3 9.9-18v-25.5c0-20.8-3.7-28.2-14.1-28.2-6.2 0-12.6 4-15.3 9.7-.8 2-1.7 4-2.2 6.4-.2.8-.3 1.5-.3 1.8v35.8c0 14.9 1 16.6 9.9 18l.3 4c-9.1-.3-31.2-.3-39.8 0l.3-4c8.9-1.3 9.7-3 9.9-18v-25.5c0-20.8-3.7-28.2-14.1-28.2-6.4 0-12.1 3.7-15.3 9.7-1.3 2.7-2.5 6.5-2.5 8.2v35.8c.2 14.9 1 16.6 9.9 18l.3 4c-9-.3-32.8-.3-42.8 0l.3-4c11.2 0 12.9-2.2 12.9-18V567c0-15.6-1.7-17.8-12.9-17.9l-.3-3.9c14.9-.8 18.3-1.3 31-4l.8 15.1c9.6-10.6 16.9-14.6 26.8-14.6 11.4 0 18.1 4.7 23.2 15.9 10.2-11.7 17.8-15.9 28-15.9 15.9 0 25 10.7 25 29.5v34.7c0 1.3-.2 2.7-.2 4 0 10.7 3 13.9 13.1 13.9l.3 4c-9.8-.3-33.5-.3-42.4.1zm81.7-.7c-5 0-12.6.3-22.8.7l.3-4c11.2 0 12.9-2.2 12.9-17.9l.2-10.6v-17.6l-.2-10.7c0-15.6-1.7-17.8-12.9-17.9l-.3-3.9c15.4-1 19-1.5 32.5-4v54.2l.2 10.6c0 15.8 1.5 17.9 12.9 17.9l.3 4c-10.4-.5-17.9-.8-23.1-.8zm-.7-102.7c-6.4 0-11.2-4.9-11.2-11.4 0-6.4 5-11.4 11.2-11.4 6.2 0 11.2 5.2 11.2 11.4 0 6.4-4.8 11.4-11.2 11.4zm71.8 23c-7.6 0-12.9 4.3-12.9 10.6 0 5.9 2.7 9.4 11.4 14.9 7.9 5.2 14.1 9.9 18.3 13.6 4.7 4.5 7.4 10.2 7.4 16.8 0 14.9-12.6 26.3-28.7 26.3-6.2 0-12.1-1.3-22.8-4.9l-.7-17.1 8.6-.3c3.9 12.9 6.4 15.4 15.3 15.4 7.7 0 12.7-4 12.7-10.1 0-5.7-3.5-10.1-14.1-17.3-5.4-3.7-9.1-6.2-11.1-7.7-4.4-3.4-7.5-7.4-9.2-11.9-1-2.5-1.5-5.5-1.5-9.1 0-15.3 10.4-25.2 26.2-25.2 5.9 0 9.2.5 22.8 3.7l.3 16.9-8.6.3c-2-11-5.5-14.9-13.4-14.9zm85.9 73.5c2.7 0 5.2-.3 9.2-1.5v4.9c-5.7 3.2-13.6 5-21.6 5-7.4 0-14.4-4.2-17.5-10.4-2.5-5.2-3.3-10.4-3.3-21.8v-43h-10.7v-7.7c13.3-1 18.4-6.7 22.3-24.2h7.6V545h21.1l-2.3 9.2h-18.8v41.3c-.1 20.6 2.5 25.5 14 25.5z"/></symbol><symbol viewBox="0 0 1024 1024" id="economist-small"><path fill="#E3120B" d="M0 0h1024v1024H0z"/><path fill="#FFF" d="M341.6 723.4c40.1-.7 49.5-11.1 49.5-50.6V352.6c0-39.5-9.4-50.6-49.5-51.3v-29.1h325.5l7.4 110.9h-40.1c-14.7-52.7-23.4-68.6-66.8-68.6h-90.2V485H528c41.4 0 53.5-9.7 56.1-49.2h36.1v139.3h-36.1c-2.7-37.4-14-49.2-55.5-49.2h-51.5V711h96.2c47.5 0 62.2-15.9 67.5-80.4h41.4v121.3H341.6v-28.5z"/></symbol><symbol viewBox="0 0 40 40" id="facebook"><title>facebook</title><path d="M24.615 20.507h-3.02V31h-4.47V20.507H15V16.8h2.125v-2.4c0-1.715.834-4.4 4.51-4.4l3.31.014v3.596H22.54c-.39 0-.95.188-.95 1.012v2.18H25l-.385 3.705z" fill-rule="evenodd"/></symbol><symbol viewBox="0 0 40 40" id="googleplus"><title>googleplus</title><path d="M23.005 10h-6.49c-3.293 0-6.043 2.42-6.043 5.093 0 2.73 1.806 4.9 4.905 4.9.217 0 .425-.014.628-.028-.203.387-.345.81-.345 1.264 0 .758.415 1.187.934 1.687-.39 0-.764.01-1.18.01-3.772 0-6.414 2.598-6.414 5.088C9 30.467 12.184 32 15.958 32c4.3 0 6.943-2.438 6.943-4.895 0-1.967-.424-2.957-2.518-4.528-.604-.452-1.91-1.377-1.91-2 0-.725.207-1.084 1.302-1.942 1.122-.877 1.915-2.028 1.915-3.466 0-1.567-.638-3.005-1.846-3.666h1.703L23.005 10zm-2.198 16.685c.05.226.085.458.085.698 0 1.985-1.28 3.532-4.944 3.532-2.608 0-4.49-1.65-4.49-3.63 0-1.944 2.207-3.618 4.816-3.59.608.005 1.174.104 1.688.27 1.415.985 2.557 1.598 2.845 2.72zm-4.175-7.692c-1.75-.052-3.415-1.66-3.717-3.956-.302-2.297.873-4.056 2.623-4.004 1.75.052 3.245 1.938 3.547 4.235.302 2.296-.703 3.777-2.453 3.725zm11.396-5.74v-2.97h-1.51v2.97h-2.97v1.51h2.97v3.018h1.51v-3.017H31v-1.51h-2.972z" fill-rule="evenodd"/></symbol><symbol viewBox="0 0 40 40" id="hamburger"><title>hamburger</title><path d="M8 13h24v2.585H8V13zm0 6.138h24v2.585H8v-2.585zm0 6.277h24V28H8v-2.585z" fill-rule="evenodd"/></symbol><symbol viewBox="0 0 40 40" id="home"><title>home</title><path d="M31 22.073h-2.41V31h-6.316v-5.567h-3.548V31H12.41v-8.927H10l3.95-4.54v-5.807h2.972v2.39L20.5 10l5.25 6.036L31 22.073z" fill-rule="evenodd"/></symbol><symbol viewBox="0 0 40 40" id="instagram"><title>instagram</title><path d="M24.908 12h-9.816C13.388 12 12 13.387 12 15.092v9.816C12 26.613 13.388 28 15.092 28h9.816C26.612 28 28 26.613 28 24.908v-9.816C28 13.387 26.612 12 24.908 12zm.887 1.845l.354-.002v2.712l-2.705.008-.01-2.712 2.36-.005zm-8.078 4.512c.512-.71 1.343-1.174 2.283-1.174s1.77.465 2.283 1.174c.334.463.534 1.03.534 1.643 0 1.552-1.264 2.816-2.817 2.816-1.552 0-2.816-1.264-2.816-2.816 0-.613.2-1.18.533-1.643zm8.724 6.55c0 .847-.686 1.534-1.532 1.534h-9.816c-.846 0-1.533-.686-1.533-1.532v-6.55h2.388c-.207.507-.322 1.062-.322 1.642 0 2.412 1.962 4.375 4.374 4.375 2.413 0 4.375-1.963 4.375-4.375 0-.58-.117-1.135-.322-1.643h2.388v6.55z" fill-rule="evenodd"/></symbol><symbol viewBox="0 0 40 40" id="left"><title>left</title><path d="M14 20.5l9.14-9.5L25 12.934l-7.282 7.576 7.277 7.566L23.143 30 14 20.5z" fill-rule="evenodd"/></symbol><symbol viewBox="0 0 40 40" id="linkedin"><title>linkedin</title><path d="M9.283 16.154h4.715V31H9.283V16.154zm2.355-2.026h-.033c-1.58 0-2.605-1.14-2.605-2.564C9 10.107 10.057 9 11.667 9c1.614 0 2.605 1.112 2.638 2.564 0 1.423-1.02 2.564-2.667 2.564zM31 31h-4.715v-7.944c0-1.996-.68-3.36-2.39-3.36-1.3 0-2.075.924-2.42 1.808-.123.317-.156.756-.156 1.2v8.29h-4.716s.06-13.452 0-14.845h4.715v2.104c.627-1.013 1.746-2.45 4.247-2.45 3.1 0 5.428 2.12 5.428 6.68V31H31z" fill-rule="evenodd"/></symbol><symbol viewBox="0 0 40 40" id="magnifier"><title>magnifier</title><path d="M31.29 28.575l-5.45-4.636c-.565-.508-1.168-.742-1.65-.718 1.286-1.507 2.06-3.46 2.06-5.597C26.25 12.86 22.39 9 17.627 9 12.86 9 9 12.86 9 17.625c0 4.764 3.86 8.625 8.626 8.625 2.133 0 4.09-.775 5.597-2.062-.024.488.21 1.09.717 1.65l4.636 5.45c.794.88 2.09.956 2.88.166.785-.79.713-2.085-.167-2.88zM17.625 23.38c-3.177 0-5.75-2.574-5.75-5.75 0-3.177 2.573-5.75 5.75-5.75 3.176 0 5.75 2.573 5.75 5.75 0 3.176-2.574 5.75-5.75 5.75z" fill-rule="evenodd"/></symbol><symbol viewBox="0 0 40 40" id="mail"><title>mail</title><path d="M19.5 23.145L10 15.922V27h19V15.923l-9.5 7.222zM28.904 14H10.096l9.404 7.13L28.904 14z" fill-rule="evenodd"/></symbol><symbol viewBox="0 0 40 40" id="minus"><title>minus</title><path d="M12 19h17v3H12z" fill-rule="evenodd"/></symbol><symbol viewBox="0 0 40 40" id="plus"><title>plus</title><path d="M19.03 19.127H12v2.746h7.03V29h2.843v-7.127H29v-2.746h-7.127V12H19.03v7.127z" fill-rule="evenodd"/></symbol><symbol viewBox="0 0 40 40" id="right"><title>right</title><path d="M15.86 30l-1.85-1.924 7.277-7.566L14 12.934 15.86 11 25 20.495 15.86 30z" fill-rule="evenodd"/></symbol><symbol viewBox="0 0 40 40" id="rss"><title>rss</title><path d="M10.015 27.434c0 1.394 1.133 2.523 2.53 2.523 1.4 0 2.533-1.13 2.533-2.523 0-1.394-1.134-2.518-2.534-2.518s-2.53 1.13-2.53 2.518zM10 21.086c2.374 0 4.608.912 6.285 2.59 1.676 1.68 2.612 3.912 2.612 6.276h3.653c0-6.898-5.616-12.503-12.545-12.503v3.636H10zM25.346 30H29c0-10.49-8.485-19-18.952-19v3.637c8.432 0 15.298 6.893 15.298 15.363z" fill-rule="evenodd"/></symbol><symbol viewBox="0 0 40 40" id="share"><title>share</title><path d="M25.167 23.333c-.966 0-1.82.485-2.33 1.225l-6.276-3.323c.063-.236.11-.48.11-.735s-.042-.5-.11-.735l6.278-3.323c.513.74 1.363 1.225 2.33 1.225C26.73 17.667 28 16.4 28 14.833 28 13.268 26.732 12 25.167 12c-1.566 0-2.834 1.268-2.834 2.833 0 .03.01.053.01.077l-6.608 3.5c-.504-.455-1.167-.743-1.902-.743-1.565 0-2.833 1.267-2.833 2.833 0 1.566 1.268 2.833 2.833 2.833.735 0 1.398-.288 1.902-.744l6.608 3.5c0 .03-.01.053-.01.077 0 1.565 1.268 2.833 2.834 2.833C26.732 29 28 27.732 28 26.167c0-1.566-1.268-2.834-2.833-2.834z" fill-rule="evenodd"/></symbol><symbol viewBox="0 0 40 40" id="tumblr"><title>tumblr</title><path d="M19.88 11v4.298h4.034v2.67H19.88v4.36c0 .988.05 1.62.155 1.9.104.28.298.504.584.67.374.227.804.34 1.29.34.86 0 1.716-.282 2.568-.84v2.683c-.727.34-1.384.582-1.973.72-.59.14-1.227.207-1.91.207-.78 0-1.467-.098-2.064-.294-.596-.198-1.106-.476-1.527-.84-.422-.363-.716-.75-.878-1.16-.163-.41-.244-1.002-.244-1.78v-5.965H14V15.56c.67-.216 1.24-.528 1.718-.932.475-.405.86-.892 1.146-1.46.288-.568.487-1.29.596-2.168h2.42" fill-rule="evenodd"/></symbol><symbol viewBox="0 0 40 40" id="twitter"><title>twitter</title><path d="M28.747 15.484c.01.196.014.39.014.587 0 6.006-4.54 12.93-12.84 12.93-2.55 0-4.92-.753-6.92-2.04.355.04.714.064 1.078.064 2.118 0 4.06-.723 5.605-1.946-1.972-.04-3.643-1.35-4.216-3.154.277.054.56.083.85.083.413 0 .81-.058 1.19-.16-2.064-.422-3.618-2.255-3.618-4.456v-.057c.606.342 1.305.542 2.043.567-1.21-.812-2.005-2.206-2.005-3.785 0-.83.223-1.614.612-2.284 2.884 3.64 6.502 5.84 9.3 4.75-.078-.333-.117-.68-.117-1.037 0-2.51 2.02-4.543 4.512-4.543 1.297 0 2.472.553 3.293 1.433 1.024-.2 1.996-.582 2.865-1.105-.34 1.06-1.054 1.95-1.986 2.513.913-.107 1.782-.35 2.593-.713-.607.915-1.37 1.717-2.253 2.357z" fill-rule="evenodd"/></symbol><symbol viewBox="0 0 40 40" id="up"><title>up</title><path d="M19.5 15l9.5 9.14L27.066 26l-7.576-7.287-7.566 7.278L10 24.14 19.5 15z" fill-rule="evenodd"/></symbol><symbol viewBox="0 0 40 40" id="user"><title>user</title><path d="M22.967 25.153c-.59-.092-.606-1.71-.606-1.71s1.742-1.712 2.12-4.015c1.018 0 1.648-2.448.63-3.31C25.154 15.21 26.42 9 20 9c-6.424 0-5.154 6.21-5.11 7.117-1.018.863-.388 3.31.63 3.31.378 2.304 2.12 4.015 2.12 4.015s-.016 1.62-.607 1.71C15.127 25.457 8 28.58 8 32h24c0-3.42-7.122-6.544-9.033-6.847z" fill-rule="evenodd"/></symbol><symbol viewBox="0 0 40 40" id="whatsapp"><title>whatsapp</title><path d="M32 19.206c0 6.186-5.052 11.206-11.29 11.206-1.982 0-3.842-.507-5.457-1.394L9 31l2.04-6.013C10.01 23.3 9.42 21.317 9.42 19.2 9.42 13.016 14.47 8 20.71 8 26.943 8 32 13.015 32 19.206zM20.71 9.784c-5.236 0-9.492 4.224-9.492 9.422 0 2.06.67 3.968 1.807 5.526l-1.186 3.495 3.65-1.157c1.498.984 3.29 1.558 5.22 1.558 5.23 0 9.492-4.224 9.492-9.422S25.94 9.784 20.71 9.784zm5.698 12.002c-.072-.116-.256-.184-.53-.324-.275-.135-1.64-.8-1.89-.892-.256-.09-.44-.135-.622.135-.183.275-.714.892-.877 1.076-.16.184-.324.208-.6.068-.28-.135-1.17-.43-2.226-1.364-.825-.728-1.38-1.63-1.538-1.9-.16-.275-.015-.424.12-.56.126-.125.28-.323.415-.482.14-.16.184-.274.276-.458.09-.183.048-.342-.024-.482-.068-.135-.622-1.49-.854-2.04-.23-.55-.458-.458-.622-.458-.16 0-.347-.024-.53-.024-.183 0-.482.068-.737.343-.257.274-.97.94-.97 2.29s.993 2.657 1.128 2.84c.14.183 1.913 3.047 4.73 4.147 2.814 1.1 2.814.733 3.32.684.507-.043 1.64-.665 1.866-1.306.236-.627.236-1.177.164-1.292z" fill-rule="evenodd"/></symbol><symbol viewBox="0 0 40 40" id="worldif"><title>worldif</title><path d="M8 9h2.8v23H8V9zm3.414 23V9h2.798v23h-2.798zM17.22 9h15.775v2.302H20.018V32h-2.8V9zM31.87 21.143H20.638V11.91H33v2.27h-9.568v4.665h8.435v2.298h.005zM20.632 32V21.752h11.235v2.268h-8.435V32h-2.8z" fill-rule="evenodd"/></symbol><symbol viewBox="0 0 40 40" id="youtube"><title>youtube</title><path d="M15.03 24.414l.014-3.24.62-.008.618-.007-.007-.5-.008-.5-1.788-.007-1.788-.007v1.013l.605.006.605.007.007 3.214c.002 1.768.01 3.23.018 3.248.01.026.136.032.55.027l.538-.007.014-3.24zm10.312-.228c-.025-.065.01-.814.044-.922.078-.256.244-.38.507-.38.218 0 .356.082.45.268.058.117.064.167.073.602l.01.473h-.535c-.458 0-.534-.006-.548-.04zm.997 3.492c.522-.145.884-.495 1.02-.99.023-.084.05-.325.06-.534l.015-.38H26.428l-.013.34c-.014.387-.055.52-.198.644-.153.13-.434.14-.617.02-.218-.144-.272-.387-.26-1.177l.007-.56 1.043-.006 1.043-.007-.014-.834c-.018-.93-.037-1.07-.196-1.4-.304-.626-1.145-.942-1.843-.692-.526.19-.838.53-.963 1.055-.044.185-.05.352-.05 1.712 0 1.67.007 1.737.18 2.078.31.608 1.087.926 1.792.733zm-4.13-.95c.064-.043.106-.102.14-.194.04-.122.045-.276.04-1.707-.006-1.49-.01-1.58-.06-1.676-.125-.25-.443-.273-.734-.055l-.096.07v3.402l.095.072c.216.16.452.194.615.087zm.63.96c.16-.045.35-.23.437-.42.166-.36.167-.37.167-2.4 0-1.67-.005-1.874-.047-2.055-.137-.577-.435-.83-.936-.792-.28.022-.5.13-.765.382-.115.11-.218.198-.23.198-.01 0-.02-.552-.02-1.227v-1.227h-.978v7.522h.98v-.253c0-.17.01-.254.03-.254.015 0 .125.09.244.2.38.35.71.447 1.12.328zm-5.208-.025c.196-.07.425-.227.62-.42.088-.09.176-.162.196-.162.026 0 .035.074.035.295v.293h.98v-5.573h-.98v4.3l-.21.205c-.168.162-.238.212-.342.24-.174.048-.285.014-.357-.107-.054-.09-.055-.132-.063-2.366l-.007-2.273h-.978v2.414c0 2.63.003 2.687.153 2.94.164.277.55.364.954.215zm.416 2.326c-.636-.012-1.388-.03-1.672-.04-1.908-.067-3.217-.138-3.48-.19-.372-.074-.79-.322-1.03-.613-.388-.467-.595-1.034-.695-1.906-.232-2.026-.227-4.39.015-6.347.106-.857.37-1.476.812-1.908.252-.247.495-.384.818-.466.7-.177 6.18-.316 9.514-.244 1.925.042 4.005.13 4.558.19.716.08 1.218.444 1.565 1.134.263.52.347.925.454 2.174.083.988.104 1.604.088 2.745-.017 1.365-.106 2.568-.24 3.243-.138.714-.47 1.322-.896 1.652-.33.254-.682.368-1.236.398-.164.01-.372.023-.462.03-.32.024-2.026.09-2.963.117-1.393.038-3.828.052-5.152.03zM16.33 17.6c-.023-.037-.02-2.23.004-2.542.03-.398-.038-.712-.33-1.513-.094-.26-.265-.764-.38-1.12-.823-2.57-.78-2.42-.7-2.422.543-.004 1.213 0 1.22.007.006.005.182.632.392 1.395l.39 1.41c.005.013.13-.43.276-.986.307-1.167.48-1.81.486-1.816.014-.013.167-.016.667-.013l.554.004-.014.087c-.01.072-.387 1.316-.783 2.58l-.245.802c-.09.3-.2.657-.245.793l-.08.248v1.544c0 1.45-.003 1.546-.047 1.558-.1.026-1.148.014-1.166-.014zm7.153.093c-.273-.035-.433-.14-.542-.35-.136-.268-.136-.267-.136-2.925v-2.48h1.102l.012 2.286c.012 2.484.01 2.426.16 2.463.14.034.293-.04.485-.23l.184-.184.007-2.168.006-2.167.55-.008.552-.006v5.678l-.075.015c-.09.018-.925.017-.992-.002-.04-.01-.048-.048-.048-.27v-.258l-.156.15c-.36.343-.747.503-1.107.456zm-2.775-1.084c.19-.142.19-.154.2-1.75.008-1.24.003-1.45-.035-1.62-.052-.23-.142-.337-.32-.384-.23-.06-.438.068-.512.314-.055.19-.054 3.003.002 3.192.043.142.18.298.28.32.132.027.293-.004.386-.073zm-.432 1.082c-.493-.058-.947-.343-1.165-.732-.22-.395-.242-.602-.23-2.345.012-1.35.016-1.434.07-1.628.13-.46.382-.774.772-.964.536-.26 1.114-.226 1.62.095.322.204.518.5.623.94.046.195.05.344.05 1.707 0 1.658-.008 1.753-.18 2.112-.167.346-.544.65-.937.76-.174.045-.475.073-.622.055z" fill-rule="evenodd"/></symbol></svg>